<svg xmlns="http://www.w3.org/2000/svg" viewBox="0 0 1440 320">
  <path fill="#00b19c" fill-opacity="1" d="M0,288L80,266.7C160,245,320,203,480,197.3C640,192,800,224,960,218.7C1120,213,1280,171,1360,149.3L1440,128L1440,0L1360,0C1280,0,1120,0,960,0C800,0,640,0,480,0C320,0,160,0,80,0L0,0Z"></path>
  <path fill="#00b19c" fill-opacity="1" d="M0,64L80,64C160,64,320,64,480,90.7C640,117,800,171,960,176C1120,181,1280,139,1360,117.3L1440,96L1440,320L1360,320C1280,320,1120,320,960,320C800,320,640,320,480,320C320,320,160,320,80,320L0,320Z"></path>
</svg>